<?xml version="1.0" encoding="UTF-8" standalone="no"?>
<svg
   xmlns:dc="http://purl.org/dc/elements/1.1/"
   xmlns:cc="http://creativecommons.org/ns#"
   xmlns:rdf="http://www.w3.org/1999/02/22-rdf-syntax-ns#"
   xmlns:svg="http://www.w3.org/2000/svg"
   xmlns="http://www.w3.org/2000/svg"
   xmlns:sodipodi="http://sodipodi.sourceforge.net/DTD/sodipodi-0.dtd"
   xmlns:inkscape="http://www.inkscape.org/namespaces/inkscape"
   version="1.1"
   width="96px"
   height="124px"
   id="svg2"
   inkscape:version="0.91 r13725"
   sodipodi:docname="sprites.svg"
   inkscape:export-filename="/Users/sammysam/Work/blockly-web/media/sprites.png"
   inkscape:export-xdpi="1000"
   inkscape:export-ydpi="1000">
  <metadata
     id="metadata65">
    <rdf:RDF>
      <cc:Work
         rdf:about="">
        <dc:format>image/svg+xml</dc:format>
        <dc:type
           rdf:resource="http://purl.org/dc/dcmitype/StillImage" />
      </cc:Work>
    </rdf:RDF>
  </metadata>
  <defs
     id="defs63" />
  <sodipodi:namedview
     pagecolor="#ffffff"
     bordercolor="#666666"
     borderopacity="1"
     objecttolerance="10"
     gridtolerance="10"
     guidetolerance="10"
     inkscape:pageopacity="0"
     inkscape:pageshadow="2"
     inkscape:window-width="1240"
     inkscape:window-height="834"
     id="namedview61"
     showgrid="false"
     inkscape:zoom="5.3831355"
     inkscape:cx="42.622331"
     inkscape:cy="16.35641"
     inkscape:window-x="140"
     inkscape:window-y="88"
     inkscape:window-maximized="0"
     inkscape:current-layer="svg2" />
  <style
     type="text/css"
     id="style4">
#background {
  fill: none;
}
.arrows {
  fill: #000;
  stroke: none;
}
.selected&gt;.arrows {
  fill: #fff;
}
.checkmark {
  fill: #000;
  font-family: sans-serif;
  font-size: 10pt;
  text-anchor: middle;
}
.trash {
  fill: #888;
}
.zoom {
  fill: none;
  stroke: #888;
  stroke-width: 2;
  stroke-linecap: round;
}
.zoom&gt;.center {
  fill: #888;
  stroke-width: 0;
}
  </style>
  <rect
     ry="6"
     rx="6"
     style="opacity:1;fill:#ffffff;fill-opacity:1;fill-rule:nonzero;stroke:none;stroke-width:1;stroke-linecap:round;stroke-linejoin:round;stroke-miterlimit:4;stroke-dasharray:none;stroke-dashoffset:0;stroke-opacity:1"
     id="rect4276"
     width="32"
     height="32"
     x="0"
     y="92" />
  <rect
     id="background"
     width="96"
     height="124"
     x="0"
     y="0" />
  <g
     id="g7">
    <path
       class="arrows"
       d="M 13,1.5 13,14.5 1.74,8 z"
       id="path9" />
    <path
       class="arrows"
       d="M 17.5,3 30.5,3 24,14.26 z"
       id="path11" />
    <path
       class="arrows"
       d="M 35,1.5 35,14.5 46.26,8 z"
       id="path13" />
  </g>
  <g
     class="selected"
     transform="translate(0, 16)"
     id="g15">
    <path
       class="arrows"
       d="M 13,1.5 13,14.5 1.74,8 z"
       id="path17" />
    <path
       class="arrows"
       d="M 17.5,3 30.5,3 24,14.26 z"
       id="path19" />
    <path
       class="arrows"
       d="M 35,1.5 35,14.5 46.26,8 z"
       id="path21" />
  </g>
  <text
     class="checkmark"
     x="55.5"
     y="28"
     id="text23">✓</text>
  <g
     class="trash"
     id="g25">
    <path
       d="M 2,41 v 6 h 42 v -6 h -10.5 l -3,-3 h -15 l -3,3 z"
       id="path27" />
    <rect
       width="36"
       height="20"
       x="5"
       y="50"
       id="rect29" />
    <rect
       width="36"
       height="42"
       x="5"
       y="50"
       rx="4"
       ry="4"
       id="rect31" />
  </g>
  <g
     class="zoom"
     id="g33"
     transform="matrix(0.86483544,0,0,0.86483544,2.162633,14.597773)"
     style="fill:none;stroke:#888888;stroke-width:2;stroke-linecap:round">
    <circle
       r="8.6114798"
       cx="16"
       cy="108"
       id="circle35"
       style="stroke-width:1.4973947;stroke-miterlimit:4;stroke-dasharray:none;stroke:#666666;stroke-opacity:1" />
    <circle
       r="5.7297287"
       cx="16"
       cy="108"
       class="center"
       id="circle37"
       style="fill:#666666;stroke-width:0;fill-opacity:1" />
    <path
       d="m 25.183098,108 3,0"
       id="path39"
       inkscape:connector-curvature="0"
       style="fill:none;fill-opacity:1;stroke:#666666;stroke-opacity:1" />
    <path
       d="m 3.8169022,108 3,0"
       id="path41"
       inkscape:connector-curvature="0"
       style="fill:none;fill-opacity:1;stroke:#666666;stroke-opacity:1" />
    <path
       d="m 16,117.1831 0,3"
       id="path43"
       inkscape:connector-curvature="0"
       style="fill:none;fill-opacity:1;stroke:#666666;stroke-opacity:1" />
    <path
       d="m 16,95.816902 0,2.999996"
       id="path45"
       inkscape:connector-curvature="0"
       style="fill:none;fill-opacity:1;stroke:#666666;stroke-opacity:1" />
  </g>
  <g
     class="zoom"
     id="g47"
     style="fill:#ffffff;stroke:#666666;stroke-width:2;stroke-linecap:round;stroke-opacity:1"
     transform="translate(0.18576534,0.37153068)">
    <rect
       y="59.628468"
       x="63.814236"
       height="64"
       width="32"
       id="rect4272"
       style="opacity:1;fill:#ffffff;fill-opacity:1;fill-rule:nonzero;stroke:none;stroke-width:1;stroke-linecap:round;stroke-linejoin:round;stroke-miterlimit:4;stroke-dasharray:none;stroke-dashoffset:0;stroke-opacity:1"
       rx="6"
       ry="6" />
  </g>
  <g
     class="zoom"
     id="g55"
     style="opacity:1;stroke:#666666;stroke-opacity:1" />
  <path
     inkscape:connector-curvature="0"
     style="opacity:1;fill:#666666"
     d="m 71.999995,105.93559 16,0 0,4.12882 -16,0 0,-4.12882 z"
     id="path4" />
  <polygon
     style="fill:#666666;fill-opacity:1;stroke:#666666;stroke-width:2;stroke-linecap:round;stroke-opacity:1"
     points="7,18 11,18 11,11 18,11 18,7 11,7 11,0 7,0 7,7 0,7 0,11 7,11 "
     id="polygon4"
     transform="matrix(0.8,0,0,0.8,72.799995,68.800001)" />
</svg>
